<?xml version="1.0" encoding="UTF-8"?>
<svg xmlns="http://www.w3.org/2000/svg" version="1.1" viewBox="0 0 200 200">
  <!-- Generator: Adobe Illustrator 28.6.0, SVG Export Plug-In . SVG Version: 1.2.0 Build 709)  -->
  <g>
    <g id="Layer_1">
      <path d="M25.8,176c-.3-.1-.4-.3-.7-.4-.3-.1-.5-.1-.8-.3-1.3-.3-2.6.1-3.6,1.1-.8.8-1.2,1.9-1.2,2.9s0,.5.1.8c0,.3.1.5.3.8s.3.5.4.7c.1.3.3.4.5.5.8.8,1.7,1.2,2.8,1.2s.5,0,.8-.1c.3,0,.5-.1.8-.3s.5-.3.7-.4c.3-.1.4-.3.5-.5.1-.1.4-.4.5-.5.1-.3.3-.4.4-.7.1-.3.1-.5.3-.8,0-.3.1-.5.1-.8,0-1.1-.4-2.1-1.2-2.8-.4-.1-.7-.3-.8-.4ZM27.6,90.3c.7,1.5,2.1,2.2,3.6,2.2s1.2-.1,1.7-.4c10.3-5.2,18.5-13,24.1-22.3v7.7c0,14.8-8.2,28.2-21.4,34.8-2,.9-2.8,3.3-1.7,5.3.9,2,3.3,2.8,5.3,1.7,7.4-3.7,13.5-9.1,17.8-15.7v71.8h-13.5c-2.2,0-4,1.7-4,4s1.7,4,4,4h113.7c2.2,0,4-1.7,4-4s-1.7-4-4-4h-10.6v-26.4c0-1.9-1.2-3.4-3-3.8-1.7-.4-3.6.4-4.5,2l-14.7,28.3h-41l21.9-38.3h41.6l23.9,44.2c.7,1.3,2.1,2.1,3.4,2.1s1.3-.1,1.9-.5c2-1.1,2.6-3.4,1.6-5.4l-25.1-46.3c-.7-1.3-2-2.1-3.4-2.1h-46.3c-1.5,0-2.8.8-3.4,2l-25.3,44.4h-9.3v-71.7c4.4,6.6,10.4,12,17.8,15.7.5.3,1.2.4,1.7.4,1.5,0,2.9-.8,3.6-2.2.9-2,.1-4.4-1.7-5.3-13.2-6.6-21.4-20-21.4-34.8v-7.8c5.6,9.4,13.8,17.3,24.1,22.3.5.3,1.2.4,1.7.4,1.5,0,2.9-.8,3.6-2.2.9-2,.1-4.4-1.7-5.3-15.7-7.8-25.9-23-27.4-40.3,3.6,4.8,8.3,8.7,13.9,11.5s1.2.4,1.7.4c1.5,0,2.9-.8,3.6-2.2.9-2,.1-4.4-1.7-5.3-11.1-5.2-17.8-16.1-17.8-28.3s-1.7-4-4-4-4,1.7-4,4c0,12.2-6.7,23.1-17.6,28.6-2,.9-2.8,3.3-1.7,5.3.7,1.5,2.1,2.2,3.6,2.2s1.2-.1,1.7-.4c5.6-2.8,10.3-6.7,13.9-11.5-1.5,17.2-11.6,32.4-27.4,40.3-2,.9-2.8,3.3-1.9,5.2Z"/>
    </g>
  </g>
</svg>