<?xml version="1.0" encoding="UTF-8"?>
<svg xmlns="http://www.w3.org/2000/svg" version="1.1" viewBox="0 0 200 200">
  <!-- Generator: Adobe Illustrator 28.6.0, SVG Export Plug-In . SVG Version: 1.2.0 Build 709)  -->
  <g>
    <g id="Layer_1">
      <path d="M97.1,24c-1.4,0-2.8.7-3.5,2-2,2.9-4.9,4.9-8.3,5.5s-6.9-.1-9.6-2.2-2.7-1.1-3.9-.6c-1.4.4-2.4,1.5-2.7,2.9l-.3,1.1c-.6,2.7-2.4,4.9-4.9,6s-5.3,1.1-7.8-.1l-9.1-4.8c-1.5-.8-3.4-.6-4.8.6-1.3,1.1-1.7,2.9-1.1,4.6l2.9,8c.8,2.2,3.2,3.2,5.5,2.5,1.5-.6,2.7-2,2.8-3.6h.1c4.8,2.4,10.2,2.5,15.1.3,3.5-1.7,6.3-4.3,8-7.7,3.5,1.4,7.4,1.8,11.3,1.1s7.4-2.5,10.3-5c2.9,2.5,6.4,4.3,10.3,5s7.8.3,11.5-1.3c1.8,3.4,4.6,6.3,8,8.3,3.4,2,7.3,2.9,11.2,2.8.6,3.8,2.1,7.6,4.6,10.5s5.9,5.2,9.5,6.4c-.8,3.8-.6,7.8.8,11.5s3.6,6.9,6.7,9.2c-2.1,3.2-3.2,7.1-3.2,11s1.1,7.7,3.2,11c-3.2,2.5-5.6,5.7-7,9.4-2,5.5-1.5,11.5,1,16.5.1.3.3.6.6.8l14.3,17.1c.8,1,2,1.5,3.2,1.5s2-.3,2.7-1c1.8-1.5,2-4.2.6-5.9l-13.8-16.6c-1.4-3.1-1.5-6.4-.4-9.5,1.3-3.2,3.6-5.9,6.9-7.1,1.3-.6,2.2-1.7,2.5-3.1.3-1.4-.3-2.8-1.3-3.8-2.5-2.4-3.9-5.6-3.9-9.1s1.4-6.7,3.9-9.1c1-1,1.5-2.4,1.3-3.8-.3-1.4-1.1-2.5-2.5-3.1-3.2-1.4-5.6-3.9-6.9-7.1s-1-6.7.6-9.9c.7-1.3.6-2.8-.1-4.1s-2-2-3.4-2.1c-3.5-.1-6.6-1.8-8.8-4.5s-3.2-6-2.8-9.5c.1-1.4-.4-2.8-1.5-3.8-1.1-1-2.5-1.3-3.9-.8-3.4,1-6.9.6-9.8-1.1s-5.2-4.6-5.9-8c-.3-1.4-1.3-2.5-2.7-2.9s-2.8-.3-3.9.6c-2.8,2.1-6.2,2.9-9.6,2.2-3.4-.6-6.3-2.5-8.3-5.5-.8-1.1-2.2-1.8-3.6-1.8ZM154.6,27c-1.1,0-2.2.4-2.9,1.2-.8.8-1.3,1.8-1.3,2.9s.4,2.2,1.3,2.9c.8.8,1.8,1.3,2.9,1.3s2.2-.6,2.9-1.3c.8-.8,1.3-1.8,1.3-2.9s-.4-2.2-1.3-2.9c-.8-.8-1.9-1.2-2.9-1.2ZM97.2,52.5c-3,0-6.1.3-9.2,1-2.2.4-3.8,2.7-3.2,4.9.4,2.2,2.7,3.8,4.9,3.2,4.2-.8,8.4-1,12.3-.4,13.6,6.9,22.8,20.7,22.8,36.8s-9.2,29.9-22.7,36.8c-19.3,2.7-37.8-9.9-41.7-29.2-.6-2.1-2.7-3.6-5-3.2-2.2.4-3.8,2.7-3.2,4.9,4.3,21.4,23.5,36.2,44.7,36.2s6.2-.3,9.2-1c24.8-5,40.8-29.2,35.8-53.7-4.4-21.5-23.5-36.3-44.8-36.2ZM36.2,59.2c-.5,0-1.1.2-1.6.5-2.1,1-2.9,3.6-1.8,5.6,1.5,3.1,1.8,6.6.6,9.9-1.3,3.2-3.6,5.9-6.9,7.1-1.3.6-2.2,1.7-2.5,3.1s.3,2.8,1.3,3.8c2.5,2.4,3.9,5.6,3.9,9.1s-1.4,6.7-3.9,9.1c-1,1-1.5,2.4-1.3,3.8s1.1,2.5,2.5,3.1c3.2,1.4,5.6,3.9,6.9,7.1s1,6.7-.6,9.9c-1,2-.1,4.5,1.8,5.6.6.3,1.3.4,1.8.4,1.5,0,3.1-.8,3.8-2.2,2.5-5.2,2.9-11.2,1-16.5-1.4-3.6-3.6-6.9-6.7-9.2,2.1-3.2,3.2-7.1,3.2-11s-1.1-7.7-3.2-11c3.1-2.4,5.5-5.6,6.7-9.2,2-5.5,1.5-11.5-1-16.5-.7-1.6-2.4-2.4-4-2.3ZM70.7,83c-1.1,0-2.2.4-2.9,1.2s-1.3,1.8-1.3,2.9.4,2.2,1.3,2.9,1.8,1.3,2.9,1.3,2.2-.6,2.9-1.3,1.3-1.8,1.3-2.9-.4-2.2-1.3-2.9c-.8-.8-1.9-1.2-2.9-1.2ZM46.3,145.6c-1.6-.1-3.2.7-4,2.3l-8,15.8c-.8,1.7-.4,3.8.8,5,1.5,1.3,3.6,1.5,5.2.6l17.3-10.6c2.1-1.3,4.5-1.4,6.7-.6,2.2,1,3.8,2.8,4.3,5.2l.4,1.7c.3,1.4,1.3,2.5,2.7,2.9,1.3.4,2.8.3,3.9-.6,2.8-2.1,6.2-2.9,9.6-2.2,3.4.6,6.3,2.5,8.3,5.5.7,1,2.1,1.7,3.5,1.7s2.8-.7,3.5-2c2-2.9,4.9-4.9,8.3-5.5s6.9.1,9.6,2.2c1.1.8,2.7,1.1,3.9.6,1.4-.4,2.4-1.5,2.7-2.9.8-3.4,2.9-6.2,5.9-8,3.1-1.7,6.6-2.1,9.8-1.1,2.2.7,4.6-.6,5.2-2.8.7-2.2-.6-4.6-2.8-5.2-5.5-1.7-11.5-1-16.5,2-3.4,2-6.2,4.9-8,8.2-3.6-1.4-7.6-1.8-11.5-1.3-3.9.7-7.4,2.5-10.3,5-2.9-2.5-6.4-4.3-10.3-5-3.8-.7-7.7-.3-11.2,1.1-1.7-3.4-4.5-6-8-7.4-4.8-2-9.9-1.5-14.3,1.1l-4.6,2.8,1.3-2.5c1.1-2.1.3-4.6-1.8-5.6-.5-.3-1.1-.4-1.6-.5Z"/>
    </g>
  </g>
</svg>