<?xml version="1.0" encoding="UTF-8"?>
<svg xmlns="http://www.w3.org/2000/svg" version="1.1" viewBox="0 0 200 200">
  <!-- Generator: Adobe Illustrator 28.6.0, SVG Export Plug-In . SVG Version: 1.2.0 Build 709)  -->
  <g>
    <g id="Layer_1">
      <path d="M113,31.4c-3.5,0-7.1,1.3-9.8,4-1.6,1.6-1.6,4.3,0,5.8,1.6,1.6,4.3,1.6,5.8,0,2.2-2.2,5.8-2.2,8,0,5.4,5.4,14.1,5.4,19.5,0,2.2-2.2,5.8-2.2,8,0,2.7,2.7,6.2,4,9.8,4s7.1-1.4,9.8-4c1.6-1.6,1.6-4.3,0-5.8-1.6-1.6-4.1-1.6-5.8,0-2.2,2.2-5.8,2.2-8,0-5.4-5.4-14.1-5.4-19.5,0-2.2,2.2-5.8,2.2-8,0-2.7-2.7-6.2-4-9.8-4ZM78.7,34.2c-11.3,0-21.7,6-27.3,15.8-1.1,1.9-.4,4.5,1.5,5.6.5.4,1.4.6,2.1.6,1.4,0,2.7-.7,3.6-2.1,4.1-7.1,12-11.7,20.2-11.7h13.7c2.3,0,4.1-1.8,4.1-4.1s-1.8-4.1-4.1-4.1h-13.7ZM175.1,34.2c-.3,0-.7,0-1,0-.3,0-.5.1-.8.3-.3.1-.4.3-.7.4-.3.1-.4.3-.7.6-.3.3-.4.4-.6.7s-.3.4-.4.7-.1.5-.3.8c0,.3-.1.5-.1.8,0,1.1.4,2.2,1.2,2.9.8.8,1.8,1.2,2.9,1.2s2.2-.4,2.9-1.2c.1-.1.4-.4.6-.7.1-.3.3-.4.4-.7.1-.3.1-.6.3-.8,0-.3.1-.5.1-.8,0-1.1-.4-2.2-1.2-2.9-.6-.8-1.5-1.3-2.5-1.3ZM37.5,61.6c-2.3,0-4.1,1.8-4.1,4.1s1.8,4.1,4.1,4.1h64.6v14.4h-37.1c-2.3,0-4.1,1.8-4.1,4.1s1.8,4.1,4.1,4.1h20.6c.5,26.8,6.6,53.3,17.9,77.6,1.5,3.3,4.9,5.5,8.7,5.5s6.3-1.8,8-4.4c1,2.1,1.9,4.3,3,6.3.7,1.5,2.2,2.3,3.7,2.3s1.2-.1,1.8-.4c2.1-1,2.9-3.4,1.8-5.5-13.1-26.7-20.1-56.2-20.1-85.6v-22.7c0-2.3-1.8-4.1-4.1-4.1H37.5ZM37.5,84.2c-2.3,0-4.1,1.8-4.1,4.1,0,29.5-7,59.1-20.2,85.5-1,2.1-.1,4.5,1.9,5.6.5.3,1.2.4,1.8.4,1.5,0,3-.8,3.7-2.3,13.7-27.5,21-58.4,21-89.2s-1.8-4.1-4.1-4.1ZM119.9,89.1c-2.3,0-4.1,1.8-4.1,4.1s1.8,4.1,4.1,4.1h.1c.1,4,.4,8,1,12,0,.3-.1.6-.1,1,0,.7.1,1.2.4,1.8,2.7,22.1,9.1,43.7,19.1,63.6h23.1c.3.5.6,1.2.8,1.8.7,1.5,2.2,2.3,3.7,2.3s1.2-.1,1.8-.4c2.1-1,2.9-3.4,1.8-5.5-9.9-19.6-15-41.6-15-63.6v-17c0-2.3-1.8-4.1-4.1-4.1h-32.6Z"/>
    </g>
  </g>
</svg>