<svg width="678" height="230" viewBox="0 0 678 230" fill="none" xmlns="http://www.w3.org/2000/svg">
<path d="M206.275 157.466L212.76 155.845V86.6787L206.275 85.0576V83.4365H235.455C246.406 83.4365 254.44 85.2017 259.555 88.7321C264.743 92.1904 267.336 96.7294 267.336 102.349C267.336 106.24 266.219 109.374 263.986 111.751C261.753 114.129 258.907 115.894 255.448 117.047C251.774 118.344 247.811 119.028 243.56 119.1V119.641C248.82 119.857 253.395 120.649 257.286 122.018C261.248 123.315 264.526 125.333 267.12 128.07C269.786 130.808 271.119 134.303 271.119 138.553C271.119 144.966 268.489 150.009 263.229 153.684C257.97 157.286 249.432 159.087 237.616 159.087H206.275V157.466ZM235.455 118.02C237.833 118.02 240.03 117.371 242.047 116.074C244.137 114.705 245.794 112.832 247.019 110.455C248.316 108.005 248.964 105.303 248.964 102.349C248.964 99.1791 248.316 96.3692 247.019 93.9195C245.794 91.4699 244.137 89.5606 242.047 88.1917C240.03 86.8228 237.833 86.1383 235.455 86.1383H230.592V118.02H235.455ZM237.616 156.385C242.083 156.385 245.722 154.8 248.532 151.63C251.342 148.46 252.746 144.101 252.746 138.553C252.746 133.006 251.342 128.647 248.532 125.477C245.722 122.307 242.083 120.721 237.616 120.721H230.592V156.385H237.616Z" fill="black"/>
<path d="M273.246 157.466L279.731 155.845V86.6787L273.246 85.0576V83.4365H287.296C293.78 83.4365 297.022 86.6787 297.022 93.163V155.845L303.507 157.466V159.087H273.246V157.466Z" fill="black"/>
<path d="M333.21 160.708C324.276 160.708 317.251 158.187 312.136 153.143C307.092 148.028 304.571 141.003 304.571 132.069C304.571 123.135 307.092 116.146 312.136 111.103C317.251 105.988 324.276 103.43 333.21 103.43C342.144 103.43 349.132 105.988 354.176 111.103C359.291 116.146 361.849 123.135 361.849 132.069C361.849 141.003 359.291 148.028 354.176 153.143C349.132 158.187 342.144 160.708 333.21 160.708ZM333.21 158.547C336.092 158.547 338.505 156.529 340.451 152.495C342.468 148.46 343.477 141.651 343.477 132.069C343.477 122.487 342.468 115.678 340.451 111.643C338.505 107.609 336.092 105.591 333.21 105.591C330.328 105.591 327.878 107.609 325.861 111.643C323.915 115.678 322.943 122.487 322.943 132.069C322.943 141.651 323.915 148.46 325.861 152.495C327.878 156.529 330.328 158.547 333.21 158.547Z" fill="black"/>
<path d="M390.526 160.708C386.059 160.708 382.06 159.736 378.53 157.79C376.801 156.854 375.396 155.845 374.315 154.764C373.162 156.349 371.902 157.574 370.533 158.439C369.884 158.871 369.164 159.267 368.371 159.628H365.669V141.255H369.992C370.929 144.281 372.298 147.091 374.099 149.685C377.918 155.233 382.673 158.006 388.365 158.006C391.391 158.006 393.66 157.286 395.173 155.845C396.758 154.332 397.551 152.171 397.551 149.361C397.551 146.983 396.47 145.002 394.309 143.417C392.219 141.76 388.905 139.742 384.366 137.365C380.475 135.419 377.305 133.69 374.856 132.177C372.478 130.592 370.425 128.647 368.695 126.341C367.038 123.964 366.21 121.19 366.21 118.02C366.21 113.697 368.047 110.202 371.721 107.537C375.468 104.799 381.196 103.43 388.905 103.43C392.723 103.43 396.254 104.439 399.496 106.456C401.081 107.393 402.45 108.365 403.603 109.374C404.539 108.077 405.8 106.852 407.385 105.699C408.61 104.979 409.331 104.583 409.547 104.511H412.249V122.883H407.926C406.845 119.785 405.512 117.011 403.927 114.561C400.325 108.942 396.038 106.132 391.066 106.132C389.121 106.132 387.464 106.852 386.095 108.293C384.726 109.734 384.042 111.535 384.042 113.697C384.042 116.435 385.194 118.74 387.5 120.613C389.806 122.415 393.3 124.504 397.983 126.882C401.802 128.827 404.828 130.556 407.061 132.069C409.367 133.51 411.312 135.311 412.897 137.473C414.554 139.634 415.383 142.156 415.383 145.038C415.383 155.485 407.097 160.708 390.526 160.708Z" fill="black"/>
<path d="M443.486 160.708C439.019 160.708 435.02 159.736 431.49 157.79C429.76 156.854 428.356 155.845 427.275 154.764C426.122 156.349 424.861 157.574 423.492 158.439C422.844 158.871 422.123 159.267 421.331 159.628H418.629V141.255H422.952C423.889 144.281 425.257 147.091 427.059 149.685C430.877 155.233 435.632 158.006 441.324 158.006C444.35 158.006 446.62 157.286 448.133 155.845C449.718 154.332 450.51 152.171 450.51 149.361C450.51 146.983 449.43 145.002 447.268 143.417C445.179 141.76 441.865 139.742 437.326 137.365C433.435 135.419 430.265 133.69 427.815 132.177C425.438 130.592 423.384 128.647 421.655 126.341C419.998 123.964 419.169 121.19 419.169 118.02C419.169 113.697 421.007 110.202 424.681 107.537C428.428 104.799 434.155 103.43 441.865 103.43C445.683 103.43 449.213 104.439 452.456 106.456C454.041 107.393 455.41 108.365 456.562 109.374C457.499 108.077 458.76 106.852 460.345 105.699C461.57 104.979 462.29 104.583 462.506 104.511H465.208V122.883H460.885C459.805 119.785 458.472 117.011 456.887 114.561C453.284 108.942 448.997 106.132 444.026 106.132C442.081 106.132 440.424 106.852 439.055 108.293C437.686 109.734 437.001 111.535 437.001 113.697C437.001 116.435 438.154 118.74 440.46 120.613C442.765 122.415 446.26 124.504 450.943 126.882C454.761 128.827 457.787 130.556 460.021 132.069C462.326 133.51 464.272 135.311 465.857 137.473C467.514 139.634 468.342 142.156 468.342 145.038C468.342 155.485 460.057 160.708 443.486 160.708Z" fill="black"/>
<path d="M499.687 160.708C490.753 160.708 483.729 158.187 478.613 153.143C473.57 148.028 471.048 141.003 471.048 132.069C471.048 123.135 473.57 116.146 478.613 111.103C483.729 105.988 490.753 103.43 499.687 103.43C508.621 103.43 515.61 105.988 520.653 111.103C525.769 116.146 528.327 123.135 528.327 132.069C528.327 141.003 525.769 148.028 520.653 153.143C515.61 158.187 508.621 160.708 499.687 160.708ZM499.687 158.547C502.569 158.547 504.983 156.529 506.928 152.495C508.946 148.46 509.954 141.651 509.954 132.069C509.954 122.487 508.946 115.678 506.928 111.643C504.983 107.609 502.569 105.591 499.687 105.591C496.806 105.591 494.356 107.609 492.339 111.643C490.393 115.678 489.421 122.487 489.421 132.069C489.421 141.651 490.393 148.46 492.339 152.495C494.356 156.529 496.806 158.547 499.687 158.547Z" fill="black"/>
<path d="M531.607 157.466L538.091 155.845V108.293L531.607 106.672V105.051H541.333C545.584 105.051 548.934 106.42 551.384 109.158C552.321 110.238 553.113 111.571 553.762 113.156C554.842 111.139 555.995 109.518 557.22 108.293C560.462 105.051 564.173 103.43 568.351 103.43C572.53 103.43 576.205 104.367 579.375 106.24C582.545 108.041 584.994 110.527 586.724 113.697C587.804 111.607 588.957 109.914 590.182 108.617C593.496 105.159 597.207 103.43 601.313 103.43C605.132 103.43 608.554 104.222 611.58 105.807C614.678 107.393 617.056 109.554 618.713 112.292C620.442 115.03 621.307 118.02 621.307 121.262V155.845L627.791 157.466V159.087H613.742C607.257 159.087 604.015 155.845 604.015 149.361V121.262C604.015 116.579 603.295 113.084 601.854 110.779C600.413 108.401 598.792 107.212 596.991 107.212C594.901 107.212 592.776 108.653 590.614 111.535C589.75 112.904 588.993 114.345 588.345 115.858V155.845L594.829 157.466V159.087H564.569V157.466L571.053 155.845V121.262C571.053 116.579 570.333 113.084 568.892 110.779C567.451 108.401 565.83 107.212 564.028 107.212C561.939 107.212 559.814 108.653 557.652 111.535C556.788 112.904 556.031 114.345 555.383 115.858V155.845L561.867 157.466V159.087H531.607V157.466Z" fill="black"/>
<path fill-rule="evenodd" clip-rule="evenodd" d="M118.309 179.723C117.612 179.86 116.889 179.906 116.156 179.85C93.5183 178.132 72.0911 165.628 59.8828 144.483C47.6743 123.337 47.559 98.5279 57.391 78.0637C58.8184 75.0927 61.9127 73.3062 65.1994 73.5556C73.6355 74.1957 81.9035 76.3337 89.589 79.8587C95.3881 68.5512 103.968 58.905 114.426 51.8227C117.155 49.9745 120.725 49.9745 123.454 51.8227C133.77 58.8088 142.258 68.2897 148.053 79.399C155.447 76.1475 163.356 74.1674 171.419 73.5556C174.706 73.3062 177.8 75.0927 179.227 78.0637C189.059 98.5279 188.944 123.337 176.736 144.483C164.527 165.628 143.1 178.132 120.462 179.85C119.729 179.906 119.006 179.86 118.309 179.723ZM134.895 166.904C148.465 162.289 160.467 152.924 168.189 139.549C178.468 121.745 178.803 100.926 170.879 83.5068C164.373 84.138 158.004 85.8021 152.03 88.4295C154.944 96.4464 156.534 105.099 156.534 114.124C156.534 134.691 148.276 153.329 134.895 166.904ZM139.316 83.9878C134.475 74.6937 127.461 66.7071 118.94 60.6982C110.236 66.8358 103.105 75.0367 98.2554 84.5867C105.974 89.5226 112.831 96.0156 118.309 103.927C124.012 95.6914 131.209 88.9929 139.316 83.9878ZM123.9 113.498C128.859 105.04 135.537 98.2055 143.239 93.1849C145.462 99.7588 146.666 106.801 146.666 114.124C146.666 131.03 140.248 146.439 129.697 158.046C132.552 143.384 130.825 127.768 123.9 113.498ZM112.718 113.498C107.983 105.42 101.678 98.8235 94.4119 93.8732C92.3354 100.249 91.2136 107.056 91.2136 114.124C91.2136 130.163 96.99 144.855 106.592 156.23C104.218 142.1 106.078 127.181 112.718 113.498ZM118.309 162.869C122.014 151.088 122.166 138.237 118.309 126.054C114.452 138.237 114.605 151.088 118.309 162.869ZM68.429 139.549C76.502 153.531 89.2528 163.132 103.582 167.504C89.8494 153.881 81.3453 134.995 81.3453 114.124C81.3453 105.283 82.8712 96.7984 85.6739 88.9192C79.3875 86.0082 72.6411 84.1763 65.739 83.5068C57.8154 100.926 58.1501 121.745 68.429 139.549Z" fill="black"/>
</svg>
