<?xml version="1.0" encoding="UTF-8"?>
<svg xmlns="http://www.w3.org/2000/svg" version="1.1" viewBox="0 0 200 200">
  <!-- Generator: Adobe Illustrator 28.6.0, SVG Export Plug-In . SVG Version: 1.2.0 Build 709)  -->
  <g>
    <g id="Layer_1">
      <path d="M98.1,9.1c-2.5,0-4.8.9-6.7,2.5-2.2,1.9-3.5,4.5-3.6,7.4l-2.6,46.4c-.1,2.5,1.7,4.5,4,4.6h.3c2.3,0,4.2-1.7,4.3-4l2.6-46.4c0-.7.4-1,.6-1.3.3-.3.7-.4,1.3-.4.9.1,1.6.9,1.6,1.9l2.6,46.2c.6,10.5,6.2,20.2,15,26l38.7,25.1c.9.6,1.2,1.6.9,2.3-.3.6-.7.9-1,1s-.9.1-1.4-.1l-41.3-20.8c-8.7-4.5-18.9-4.8-27.8-.9-.3.1-.6.3-.9.3l-42.7,21.8c-.6.3-1.2.1-1.4.1-.3-.1-.7-.4-1-1-.3-.7,0-1.7.9-2.3l38.7-25.5c2-1.3,2.6-4,1.3-6.1-1.3-1.9-4-2.5-6.1-1.2l-38.7,25.4c-4.3,2.9-6.1,8.5-4,13.1,1.2,2.6,3.3,4.6,6.1,5.6,1.2.4,2.3.6,3.5.6s3.3-.4,4.8-1.2l36.9-18.9-.4,8.9v.3l-.3,5.2-2.5,58.6h-40.1c-2.5,0-4.3,1.9-4.3,4.3s1.9,4.3,4.3,4.3h116.4c2.5,0,4.3-1.9,4.3-4.3s-1.9-4.3-4.3-4.3h-39.1l-3.3-73.3,37.4,18.9c1.4.7,3,1.2,4.8,1.2s2.3-.1,3.5-.6c2.7-1,4.9-2.9,6.1-5.6,2-4.6.3-10.2-4-13.1l-38.8-25.1c-6.5-4.2-10.7-11.4-11.1-19.2l-2.6-46.2c-.3-5.2-4.3-9.5-9.4-10.1-.4,0-.7,0-1.1,0ZM69.1,15.1c-.6,0-1.2.1-1.7.4-14.9,6.5-27.4,17.7-35.5,31.7-1.2,2-.4,4.8,1.6,5.9.7.4,1.4.6,2.2.6,1.4,0,2.9-.7,3.8-2.2,7.2-12.4,18.5-22.4,31.6-28.1,2.2-1,3.2-3.5,2.2-5.8-.8-1.6-2.3-2.6-4-2.6ZM74.3,28.5c-.6,0-1.1.1-1.7.4-7.4,3.5-13.8,8.1-19.5,14-1.6,1.7-1.6,4.5.1,6.1.9.9,1.9,1.2,3,1.2s2.3-.4,3.2-1.3c4.8-5,10.5-9.1,16.7-12,2.2-1,3.2-3.6,2.2-5.8-.8-1.6-2.4-2.6-4.1-2.6ZM29,61.3c-2-.2-4,1.2-4.5,3.2-.1.4-.1.9-.1,1.2,0,1.9,1.3,3.6,3.2,4.2.4.1.9.1,1.2.1,1.9,0,3.6-1.3,4.2-3.2h0c.1-.6.1-1,.1-1.3,0-1.9-1.3-3.6-3.2-4-.3,0-.6-.1-.9-.2ZM98.1,79.8c-3.2,0-5.8,2.6-5.8,5.8s2.6,5.8,5.8,5.8,5.8-2.6,5.8-5.8-2.6-5.8-5.8-5.8ZM93.3,115.4c2.4-.1,4.6,1.8,4.7,4.3.9,19.6,1.6,41,1.9,46.9.1,3,2.7,5.5,5.8,5.5s1.3-.1,1.9-.3l.4,10.4h-19.8l2.7-65.8.7-.6c.5-.3,1.1-.4,1.6-.4ZM177.6,182c-.3,0-.6,0-.9.1-.3,0-.6.1-.9.3s-.4.3-.7.4-.4.3-.7.6l-.6.6c-.1.3-.3.4-.4.7-.1.3-.1.6-.3.9,0,.3-.1.6-.1.9s0,.6.1.9c.1.4.1.7.3.9.1.3.3.6.4.7.1.3.3.4.6.6.1.1.4.4.7.6s.4.3.7.4.6.1.9.3c.3,0,.6.1.9.1s.6,0,.9-.1c.3,0,.6-.1.9-.3.3-.1.6-.3.7-.4.3-.1.4-.3.7-.6l.6-.6c.1-.3.3-.4.4-.7s.1-.6.3-.9c0-.3.1-.6.1-.9s0-.6-.1-.9c0-.3-.1-.6-.3-.9-.1-.3-.3-.4-.4-.7-.1-.3-.3-.4-.6-.6-.1-.1-.4-.4-.7-.6-.3-.1-.4-.3-.7-.4-.3-.1-.6-.1-.9-.3-.3,0-.6-.1-.9-.1Z"/>
    </g>
  </g>
</svg>